<?xml version="1.0" standalone="no"?>
<!DOCTYPE svg PUBLIC "-//W3C//DTD SVG 20010904//EN"
 "http://www.w3.org/TR/2001/REC-SVG-20010904/DTD/svg10.dtd">
<svg version="1.0" xmlns="http://www.w3.org/2000/svg"
 width="35.000000pt" height="35.000000pt" viewBox="0 0 35.000000 35.000000"
 preserveAspectRatio="xMidYMid meet">

<g transform="translate(0.000000,35.000000) scale(0.100000,-0.100000)"
fill="#000000" stroke="none">
<path d="M128 283 l92 -4 0 -44 0 -45 49 0 c52 0 61 -8 61 -56 0 -27 -14 -31
-36 -9 -19 19 -39 19 -58 0 -19 -20 -75 -19 -97 1 -18 16 -59 12 -59 -7 0 -5
-9 -9 -20 -9 -11 0 -20 -4 -20 -10 0 -5 6 -10 14 -10 7 0 19 -7 26 -15 7 -8
23 -15 37 -15 13 0 26 7 29 15 8 20 80 20 88 0 3 -8 17 -15 31 -15 14 0 28 7
31 15 4 8 17 15 30 15 21 0 24 5 24 35 0 52 -55 145 -85 145 -13 0 -27 5 -30
10 -4 6 -47 9 -103 8 l-97 -2 93 -3z m160 -48 c16 -35 16 -35 -18 -35 -32 0
-47 18 -36 45 9 24 42 17 54 -10z m-152 -126 c10 -17 -23 -46 -37 -32 -7 7 -9
19 -6 27 7 18 33 21 43 5z m150 0 c10 -17 -23 -46 -37 -32 -7 7 -9 19 -6 27 7
18 33 21 43 5z"/>
<path d="M20 240 c0 -5 25 -10 55 -10 30 0 55 5 55 10 0 6 -25 10 -55 10 -30
0 -55 -4 -55 -10z"/>
<path d="M28 193 c18 -2 45 -2 60 0 15 2 0 4 -33 4 -33 0 -45 -2 -27 -4z"/>
<path d="M38 153 c12 -2 30 -2 40 0 9 3 -1 5 -23 4 -22 0 -30 -2 -17 -4z"/>
</g>
</svg>
